<svg xmlns="http://www.w3.org/2000/svg" width="1200" height="460" viewBox="0 0 1200 460" fill="none">
  <foreignObject width="1200" height="460">
    <div xmlns="http://www.w3.org/1999/xhtml">
      <style>
* { box-sizing: border-box; }
html, body {
  margin: 0;
  width: 1200px;
  color: #2f211b;
  font-family: -apple-system, BlinkMacSystemFont, "Segoe UI", Arial, Helvetica, sans-serif;
}
.page {
  width: 1200px;
  padding: 0;
  background: transparent;
}
.card {
  position: relative;
  overflow: hidden;
  background: #fff8ee;
  border: 3px solid #c99564;
  border-radius: 18px;
  box-shadow: 0 8px 0 rgba(121,72,38,.14), 0 18px 32px rgba(91,53,30,.08);
}
.section { padding: 28px; }
.section-title {
  display: flex; align-items: center; gap: 10px;
  margin: 0 0 18px; color: #3b261c;
  font-size: 28px; font-weight: 850; letter-spacing: -.7px;
}
.muted { color: #7a6558; }
.pill {
  display: inline-flex; align-items: center; gap: 8px;
  padding: 9px 14px; border: 2px solid #d4a06f; border-radius: 10px;
  background: #fff4e5; color: #51392c; font-size: 14px; font-weight: 750;
}

.hero { min-height: 395px; display:grid; grid-template-columns: 420px 1fr; gap: 54px; align-items:center; padding:42px 50px; }
.hero::after {
  content:""; position:absolute; right:-95px; top:52px; width:300px; height:300px;
  border-radius:50%; border:34px solid rgba(200,105,50,.045);
}
.portrait-wrap { position:relative; width:380px; height:320px; margin:0 auto; }
.window {
  position:absolute; inset:20px 28px 22px; overflow:hidden; border:18px solid #9b5f34; border-bottom-width:28px;
  border-radius:145px 145px 22px 22px; background:#edc99d;
  box-shadow: inset 0 0 0 5px #c9824b, 0 15px 24px rgba(75,42,24,.18);
}
.room-line { position:absolute; left:0; right:0; top:95px; height:3px; background:rgba(112,66,35,.28); }
.room-door { position:absolute; left:20px; top:75px; width:76px; height:145px; border:6px solid #7e4c2d; background:#b87442; }
.room-shelf {
  position:absolute; right:17px; top:115px; width:88px; height:95px; border:5px solid #7e4c2d;
  background: linear-gradient(#7e4c2d,#7e4c2d) 0 31px/100% 5px no-repeat,
              linear-gradient(#7e4c2d,#7e4c2d) 0 62px/100% 5px no-repeat, #a9683d;
}
.avatar-svg { position:absolute; left:60px; bottom:28px; width:260px; height:250px; filter:drop-shadow(0 8px 6px rgba(65,38,22,.13)); }
.plant-left, .plant-right, .plant-bottom { position:absolute; font-size:40px; line-height:1; }
.plant-left { left:8px; top:2px; transform:rotate(-18deg); }
.plant-right { right:6px; top:5px; transform:rotate(16deg); }
.plant-bottom { right:34px; bottom:18px; font-size:34px; }
.brand { margin:0; color:#26170f; font-size:92px; line-height:.95; font-weight:950; letter-spacing:-5px; }
.name { display:flex; align-items:center; gap:10px; margin-top:18px; color:#8b6c5b; font-size:28px; font-weight:780; }
.verified {
  display:inline-grid; place-items:center; width:23px; height:23px; border-radius:50%;
  color:#fff; background:#6ba6cf; font-size:14px; font-weight:900;
}
.role { margin:25px 0 0; font-size:36px; font-weight:880; letter-spacing:-1px; }
.tagline { max-width:600px; margin:18px 0 0; color:#5d493e; font-size:19px; line-height:1.65; }
.hero-chips { display:flex; flex-wrap:wrap; gap:10px; margin-top:26px; }
</style>
      <div class="page" style="min-height:460px">
<section class="card hero">
  <div class="portrait-wrap">
    <div class="plant-left">🌼</div>
    <div class="plant-right">🌿</div>
    <div class="window">
      <div class="room-line"></div>
      <div class="room-door"></div>
      <div class="room-shelf"></div>
    </div>
    <svg class="avatar-svg" viewBox="0 0 280 260" xmlns="http://www.w3.org/2000/svg">
      <ellipse cx="140" cy="238" rx="93" ry="15" fill="#6e432d" opacity=".18"/>
      <path d="M91 139c-18 14-30 45-28 81h154c3-36-10-67-29-81z" fill="#f8f7f2" stroke="#39251c" stroke-width="5"/>
      <path d="M110 151l30 26 31-26" fill="none" stroke="#c8c1b8" stroke-width="4"/>
      <path d="M102 205c-27-2-47 7-55 20 26 8 58 8 89 0" fill="#f6c096" stroke="#39251c" stroke-width="5" stroke-linecap="round"/>
      <path d="M178 205c27-2 47 7 55 20-26 8-58 8-89 0" fill="#f6c096" stroke="#39251c" stroke-width="5" stroke-linecap="round"/>
      <path d="M83 102c0-44 25-73 57-73s57 29 57 73c0 43-25 72-57 72s-57-29-57-72z" fill="#f6bd91" stroke="#39251c" stroke-width="5"/>
      <path d="M88 89c-2-31 14-66 48-70 19-3 42 5 54 20 10 13 14 31 9 52-7-18-18-28-34-36-10 11-31 19-55 17-7 7-14 12-22 17z" fill="#1e1f21" stroke="#141414" stroke-width="5"/>
      <path d="M100 47c12-24 32-34 45-34-5 8-7 14-8 22 14-15 31-20 43-18-8 7-13 13-16 19 14-4 27-1 35 4-10 4-17 8-23 14" fill="#1e1f21" stroke="#141414" stroke-width="5" stroke-linecap="round" stroke-linejoin="round"/>
      <ellipse cx="115" cy="105" rx="12" ry="16" fill="#241711"/><ellipse cx="165" cy="105" rx="12" ry="16" fill="#241711"/>
      <circle cx="111" cy="99" r="4" fill="#fff"/><circle cx="161" cy="99" r="4" fill="#fff"/>
      <path d="M122 136c10 9 26 9 36 0" fill="none" stroke="#9e4c39" stroke-width="4" stroke-linecap="round"/>
      <path d="M140 111c-4 7-4 12 2 14" fill="none" stroke="#d88a69" stroke-width="3" stroke-linecap="round"/>
      <path d="M101 83c8-5 17-5 25-1" fill="none" stroke="#39251c" stroke-width="5" stroke-linecap="round"/>
      <path d="M154 82c8-4 17-4 25 1" fill="none" stroke="#39251c" stroke-width="5" stroke-linecap="round"/>
    </svg>
    <div class="plant-bottom">🪴</div>
  </div>

  <div>
    <h1 class="brand">Quhu</h1>
    <div class="name">Văn Quốc Hùng <span class="verified">✓</span></div>
    <h2 class="role">Frontend Developer</h2>
    <p class="tagline">
      I build warm, playful interfaces where thoughtful engineering
      meets character, motion and a little bit of unexpected joy.
    </p>
    <div class="hero-chips">
      <span class="pill">☕ Coffee powered</span>
      <span class="pill">✨ UI motion</span>
      <span class="pill">🌿 Based in HCMC</span>
    </div>
  </div>
</section>
</div>
    </div>
  </foreignObject>
</svg>