<svg xmlns="http://www.w3.org/2000/svg" width="1200" height="2210" viewBox="0 0 1200 2210" fill="none">
  <foreignObject width="1200" height="2210">
    <div xmlns="http://www.w3.org/1999/xhtml">
      <style>
@import url('https://fonts.googleapis.com/css2?family=Baloo+2:wght@400..800&amp;display=swap');
        *{box-sizing:border-box}html,body{margin:0;width:1200px;min-height:2210px;color:#fff8e9;font-family:"Baloo 2",-apple-system,BlinkMacSystemFont,"Segoe UI",Arial,Helvetica,sans-serif}.page{width:1200px;min-height:2210px;padding:0;overflow:hidden;background:transparent}.page>.card{min-height:inherit}.card{position:relative;overflow:hidden;background:#1b120d;border:1px solid #8f5b2e;border-radius:8px;box-shadow:inset 0 0 0 1px rgba(255,248,233,.04)}.section{margin-top:22px;padding:24px}.section-title{display:flex;align-items:center;gap:10px;margin:0 0 20px;color:#fff8e9;font-size:22px;font-weight:700;letter-spacing:0;font-family:"Baloo 2",sans-serif}.hero{min-height:390px;display:grid;grid-template-columns:1fr;align-items:center;padding:52px 56px}.hero:after{display:none}.hero-copy{position:relative;z-index:2}.brand{margin:0;color:#fff8e9;font-size:70px;line-height:1;font-weight:800;letter-spacing:0;font-family:"Baloo 2",sans-serif}.name{display:flex;align-items:center;gap:10px;margin-top:14px;color:#d8c1aa;font-size:22px;font-weight:650}.verified{display:inline-grid;place-items:center;width:23px;height:23px;border-radius:50%;color:#1b120d;background:#7fb955;font-size:14px;font-weight:900}.role{margin:22px 0 0;color:#fff8e9;font-size:30px;font-weight:750;letter-spacing:0;font-family:"Baloo 2",sans-serif}.tagline{max-width:620px;margin:16px 0 0;color:#d8c1aa;font-size:17px;line-height:1.55}.hero-chips{display:flex;flex-wrap:wrap;gap:10px;margin-top:26px}.chip{display:inline-flex;align-items:center;gap:8px;padding:8px 12px;border:1px solid #8f5b2e;border-radius:6px;color:#d8c1aa;background:#261a13;font-size:14px;font-weight:750}.icon{width:24px;height:24px;flex:0 0 auto;color:#e7a15c;stroke:currentColor;stroke-width:2;fill:none;stroke-linecap:round;stroke-linejoin:round}.chip .icon{width:16px;height:16px}.value-icon,.fact-icon,.activity-icon,.contact-icon{display:grid;place-items:center;color:#e7a15c}.value-icon .icon,.fact-icon .icon,.activity-icon .icon,.contact-icon .icon{width:34px;height:34px}.quote{min-height:170px;display:grid;grid-template-columns:76px 1fr 230px;align-items:center;padding:26px 34px}.quote-mark{align-self:start;color:#e7a15c;font-family:"Baloo 2",sans-serif;font-size:88px;line-height:.9}.quote-text{padding-left:24px;border-left:4px solid #e7a15c;font-size:31px;line-height:1.32;font-weight:900;letter-spacing:0}.coffee-art{position:relative;height:120px}.cup{position:absolute;right:72px;bottom:12px;width:92px;height:62px;border:5px solid #9a613d;border-radius:10px 10px 30px 30px;background:#f2d1a7}.cup:before{content:"";position:absolute;right:-30px;top:11px;width:30px;height:27px;border:5px solid #9a613d;border-left:0;border-radius:0 18px 18px 0}.cup:after{content:"˘";position:absolute;left:30px;top:18px;color:#75482f;font-size:26px;font-weight:900}.steam{position:absolute;right:104px;top:2px;color:#d49a6a;font-size:50px}.books{position:absolute;right:15px;bottom:0;width:118px;height:20px;border:4px solid #9a613d;border-radius:6px;background:#cf7540;box-shadow:-12px -18px 0 -2px #e6b67c,-12px -18px 0 2px #9a613d,8px -36px 0 -2px #7d9c7a,8px -36px 0 2px #9a613d}.two-col{display:grid;grid-template-columns:1fr 1fr;gap:22px;margin-top:22px}.about p{margin:0 0 14px;color:#d8c1aa;font-size:17px;line-height:1.62}.about p:last-child{margin-bottom:0}.skills-grid{display:grid;grid-template-columns:repeat(3,1fr);gap:12px}.skill{min-height:58px;display:flex;align-items:center;gap:11px;padding:11px 13px;border:1px solid #8f5b2e;border-radius:8px;background:#261a13;box-shadow:none;font-size:15px;font-weight:780}.skill-icon{display:grid;place-items:center;width:32px;height:32px;border-radius:9px;color:#1b120d;font-size:14px;font-weight:950;box-shadow:0 3px 0 rgba(72,42,24,.12)}.html{background:#e65d2f}.css{background:#3478bf}.sass{background:#cb6b98}.js{color:#2b2414;background:#f0ca36}.react{background:#58a9ce}.gsap{background:#458354}.figma{background:#e46d4d}.ps{background:#176ca4}.git{background:#d85d35}.vscode{background:#3487c8}.facts{display:grid;grid-template-columns:repeat(4,1fr);gap:14px}.fact{min-height:96px;display:flex;align-items:center;gap:14px;padding:15px 17px;border:1px solid #8f5b2e;border-radius:8px;background:#261a13;box-shadow:none}.fact-icon{font-size:36px}.fact strong{display:block;margin-bottom:4px;font-size:15px}.fact span{color:#d8c1aa;font-size:14px;line-height:1.35}.values{display:grid;grid-template-columns:repeat(3,1fr);gap:16px}.value{min-height:152px;padding:20px 18px;text-align:center;border:1px solid #8f5b2e;border-radius:8px;background:#261a13;box-shadow:none}.value-icon{font-size:34px}.value h3{margin:10px 0 7px;font-size:17px}.value p{margin:0;color:#d8c1aa;font-size:14px;line-height:1.45}.projects{display:grid;grid-template-columns:1fr 1fr;gap:18px}.project{display:grid;grid-template-columns:210px 1fr;gap:20px;align-items:center;padding:18px;border:1px solid #8f5b2e;border-radius:8px;background:#261a13;box-shadow:none}.project-preview{position:relative;height:150px;overflow:hidden;border:4px solid #7c5036;border-radius:13px;background:#ddbd86}.project-preview.travel{background:linear-gradient(145deg,transparent 48%,#547e5e 49% 65%,transparent 66%),linear-gradient(35deg,transparent 45%,#6d9472 46% 62%,transparent 63%),linear-gradient(#8fc6d0 0 52%,#5e9b7a 53% 67%,#e3bd79 68%)}.project-preview.travel:after{content:"Wander UI";position:absolute;left:37px;top:52px;width:125px;padding:12px 8px;text-align:center;color:#68442f;border:2px solid #b98761;border-radius:10px;background:rgba(255,247,232,.92);font-size:15px;font-weight:850}.project-preview.dashboard{padding:13px;background:#27313a}.dash-sidebar{position:absolute;left:10px;top:10px;bottom:10px;width:38px;border-radius:5px;background:#161d23}.dash-box{position:absolute;border-radius:5px;background:#f2e6d5}.dash-a{left:58px;top:14px;width:128px;height:26px}.dash-b{left:58px;top:48px;width:57px;height:36px}.dash-c{left:123px;top:48px;width:63px;height:36px}.dash-d{left:58px;top:92px;width:128px;height:42px}.project h3{margin:0 0 8px;font-size:23px}.project p{margin:0;color:#d8c1aa;font-size:14px;line-height:1.45}.project-tags{display:flex;flex-wrap:wrap;gap:7px;margin-top:13px}.project-tags span{padding:6px 9px;border:1px solid #8f5b2e;border-radius:6px;color:#d8c1aa;background:#1b120d;font-size:12px;font-weight:780}.project-actions{display:flex;gap:8px;margin-top:14px}.btn{padding:8px 11px;border:1px solid #8f5b2e;border-radius:6px;color:#fff8e9;background:#1b120d;font-size:12px;font-weight:850}.btn.primary{color:#1b120d;border-color:#e7a15c;background:#e7a15c}.activity{display:grid;grid-template-columns:repeat(3,1fr);gap:14px}.activity-card{min-height:108px;display:flex;align-items:center;gap:15px;padding:17px;border:1px solid #8f5b2e;border-radius:8px;background:#261a13;box-shadow:none}.activity-icon{font-size:38px}.activity-card strong{display:block;margin-bottom:5px;font-size:15px}.activity-card b{display:block;margin-bottom:2px;font-size:20px}.activity-card span{color:#d8c1aa;font-size:13px}.contact{display:grid;grid-template-columns:repeat(3,1fr);gap:14px}.contact-item{min-height:84px;display:flex;align-items:center;gap:14px;padding:15px 18px;border:1px solid #8f5b2e;border-radius:8px;color:#fff8e9;background:#261a13;box-shadow:none;text-decoration:none}.contact-icon{font-size:33px}.contact-item strong{display:block;margin-bottom:3px;font-size:15px}.contact-item span{color:#d8c1aa;font-size:13px}.footer{margin-top:22px;padding:14px;color:#d8c1aa;text-align:center;font-size:14px}
      </style>
      <main class="page">
        <section class="card hero"><div class="hero-copy">
            <h1 class="brand">Quhu</h1>
            <div class="name">Văn Quốc Hùng <span class="verified">✓</span></div>
            <h2 class="role">Frontend Developer</h2>
            <p class="tagline">I build warm, playful interfaces where thoughtful engineering meets character, motion and a little bit of unexpected joy.</p>
            <div class="hero-chips"><span class="chip"><svg class="icon" viewBox="0 0 24 24"><path d="M5 8h10v7a4 4 0 0 1-4 4H9a4 4 0 0 1-4-4V8z"/><path d="M15 10h2a3 3 0 0 1 0 6h-2"/><path d="M6 3v2"/><path d="M10 3v2"/><path d="M14 3v2"/></svg>Coffee powered</span><span class="chip"><svg class="icon" viewBox="0 0 24 24"><path d="M12 3l1.5 5L19 10l-5.5 2L12 17l-1.5-5L5 10l5.5-2L12 3z"/><path d="M20 4v4"/><path d="M22 6h-4"/></svg>UI motion</span><span class="chip"><svg class="icon" viewBox="0 0 24 24"><path d="M12 21s7-5 7-11a7 7 0 0 0-14 0c0 6 7 11 7 11z"/><circle cx="12" cy="10" r="2.5"/></svg>Based in HCMC</span></div>
          </div>
        </section>
        <section class="card section quote"><div class="quote-mark">“</div><div class="quote-text">I turn ideas into digital spaces that feel clear, responsive and genuinely fun to explore.</div><div class="coffee-art"><div class="steam">〰</div><div class="cup"></div><div class="books"></div></div></section>
        <div class="two-col">
          <section class="card section about"><h2 class="section-title"><svg class="icon" viewBox="0 0 24 24"><path d="M7 20c8 0 13-5 13-13V4h-3C9 4 4 9 4 17v3h3z"/><path d="M4 20c4-4 8-7 13-10"/></svg>About Me</h2><p>Mình là <strong>Quốc Hùng</strong>, một Frontend Developer yêu thích việc biến ý tưởng thành những giao diện rõ ràng, thân thiện và có cá tính.</p><p>Mình quan tâm đến clean code, khả năng bảo trì, responsive design và những chuyển động nhỏ giúp trải nghiệm tự nhiên hơn.</p><p>Khi không code, mình thường khám phá UI animation, thiết kế cozy và các cách mới để làm giao diện trở nên sống động.</p></section>
          <section class="card section"><h2 class="section-title"><svg class="icon" viewBox="0 0 24 24"><rect x="3" y="7" width="18" height="13" rx="2"/><path d="M8 7V5c0-1 1-2 2-2h4c1 0 2 1 2 2v2"/><path d="M3 12h18"/></svg>Skills &amp; Tools</h2><div class="skills-grid"><div class="skill"><span class="skill-icon html">H5</span>HTML</div><div class="skill"><span class="skill-icon css">C3</span>CSS</div><div class="skill"><span class="skill-icon sass">S</span>Sass</div><div class="skill"><span class="skill-icon js">JS</span>JavaScript</div><div class="skill"><span class="skill-icon react">⚛</span>React</div><div class="skill"><span class="skill-icon gsap">G</span>GSAP</div><div class="skill"><span class="skill-icon figma">F</span>Figma</div><div class="skill"><span class="skill-icon ps">Ps</span>Photoshop</div><div class="skill"><span class="skill-icon git">Git</span>Git</div><div class="skill"><span class="skill-icon vscode">&lt;/&gt;</span>VS Code</div></div></section>
        </div>
        <section class="card section"><h2 class="section-title"><svg class="icon" viewBox="0 0 24 24"><circle cx="12" cy="12" r="9"/><path d="M12 8h.01"/><path d="M11 12h1v5h1"/></svg>Quick Facts</h2><div class="facts"><div class="fact"><div class="fact-icon"><svg class="icon" viewBox="0 0 24 24"><path d="M12 21s7-5 7-11a7 7 0 0 0-14 0c0 6 7 11 7 11z"/><circle cx="12" cy="10" r="2.5"/></svg></div><div><strong>Based in</strong><span>Ho Chi Minh City</span></div></div><div class="fact"><div class="fact-icon"><svg class="icon" viewBox="0 0 24 24"><rect x="4" y="5" width="16" height="11" rx="1"/><path d="M8 20h8"/><path d="M12 16v4"/></svg></div><div><strong>Role</strong><span>Frontend Developer</span></div></div><div class="fact"><div class="fact-icon"><svg class="icon" viewBox="0 0 24 24"><rect x="3" y="5" width="18" height="14" rx="2"/><path d="M7 5v14"/><path d="M17 5v14"/><path d="M3 9h18"/><path d="M3 15h18"/></svg></div><div><strong>Loves</strong><span>UI motion</span></div></div><div class="fact"><div class="fact-icon"><svg class="icon" viewBox="0 0 24 24"><path d="M5 8h10v7a4 4 0 0 1-4 4H9a4 4 0 0 1-4-4V8z"/><path d="M15 10h2a3 3 0 0 1 0 6h-2"/><path d="M6 3v2"/><path d="M10 3v2"/><path d="M14 3v2"/></svg></div><div><strong>Powered by</strong><span>Coffee</span></div></div></div></section>
        <section class="card section"><h2 class="section-title"><svg class="icon" viewBox="0 0 24 24"><path d="M12 20V10"/><path d="M12 10c-4 0-7-2-8-6 4 0 7 2 8 6z"/><path d="M12 10c4 0 7-2 8-6-4 0-7 2-8 6z"/></svg>What I Care About</h2><div class="values"><div class="value"><div class="value-icon"><svg class="icon" viewBox="0 0 24 24"><circle cx="12" cy="12" r="8"/><circle cx="12" cy="12" r="4"/><path d="M12 12l6-6"/><path d="M18 6h3v3"/></svg></div><h3>Thoughtful UI</h3><p>Giao diện rõ ràng, có chủ đích và không có chi tiết thừa.</p></div><div class="value"><div class="value-icon"><svg class="icon" viewBox="0 0 24 24"><rect x="7" y="2" width="10" height="20" rx="2"/><path d="M11 18h2"/></svg></div><h3>Responsive Design</h3><p>Hoạt động tốt trên desktop, tablet và thiết bị di động.</p></div><div class="value"><div class="value-icon"><svg class="icon" viewBox="0 0 24 24"><circle cx="12" cy="5" r="2"/><path d="M12 7v6h5"/><path d="M9 11a6 6 0 1 0 6 8"/><path d="M17 13l2 6"/></svg></div><h3>Accessibility</h3><p>Trải nghiệm dễ đọc, dễ thao tác và dễ tiếp cận.</p></div><div class="value"><div class="value-icon"><svg class="icon" viewBox="0 0 24 24"><path d="M12 3l1.5 5L19 10l-5.5 2L12 17l-1.5-5L5 10l5.5-2L12 3z"/><path d="M20 4v4"/><path d="M22 6h-4"/></svg></div><h3>Playful Motion</h3><p>Animation vừa đủ, tự nhiên và hỗ trợ trải nghiệm.</p></div><div class="value"><div class="value-icon"><svg class="icon" viewBox="0 0 24 24"><path d="M8 3h8v5h2a3 3 0 1 1 0 6h-2v7H8v-4H6a3 3 0 1 1 0-6h2V3z"/></svg></div><h3>Clean Architecture</h3><p>Code dễ đọc, dễ bảo trì và thuận tiện để mở rộng.</p></div><div class="value"><div class="value-icon"><svg class="icon" viewBox="0 0 24 24"><path d="M13 2 4 14h7l-1 8 10-12h-7l1-8z"/></svg></div><h3>Performance</h3><p>Website tải nhanh và hạn chế tài nguyên không cần thiết.</p></div></div></section>
        <section class="card section"><h2 class="section-title"><svg class="icon" viewBox="0 0 24 24"><path d="m12 3 2.8 5.7 6.2.9-4.5 4.4 1.1 6.2L12 17.3l-5.6 2.9 1.1-6.2L3 9.6l6.2-.9L12 3z"/></svg>Featured Projects</h2><div class="projects"><article class="project"><div class="project-preview travel"></div><div><h3>Wander UI</h3><p>A cozy travel landing page with smooth scrolling, playful interactions and responsive visuals.</p><div class="project-tags"><span>React</span><span>Sass</span><span>GSAP</span></div><div class="project-actions"><span class="btn primary">Live Demo ↗</span><span class="btn">Source Code</span></div></div></article><article class="project"><div class="project-preview dashboard"><div class="dash-sidebar"></div><div class="dash-box dash-a"></div><div class="dash-box dash-b"></div><div class="dash-box dash-c"></div><div class="dash-box dash-d"></div></div><div><h3>Dashboard Kit</h3><p>A responsive dashboard template with modern components, charts and accessible interactions.</p><div class="project-tags"><span>React</span><span>JavaScript</span><span>CSS</span></div><div class="project-actions"><span class="btn primary">Live Demo ↗</span><span class="btn">Source Code</span></div></div></article></div></section>
        <section class="card section"><h2 class="section-title"><svg class="icon" viewBox="0 0 24 24"><path d="M13 2 4 14h7l-1 8 10-12h-7l1-8z"/></svg>GitHub Activity</h2><div class="activity"><div class="activity-card"><div class="activity-icon"><svg class="icon" viewBox="0 0 24 24"><path d="M3 6h7l2 2h9v10a2 2 0 0 1-2 2H5a2 2 0 0 1-2-2V6z"/></svg></div><div><strong>Repositories</strong><b>View projects</b><span>github.com/hungvq98</span></div></div><div class="activity-card"><div class="activity-icon"><svg class="icon" viewBox="0 0 24 24"><path d="M9 19c-5 1-5-2-7-3"/><path d="M15 22v-3.5c0-1 .3-1.8 1-2.4 3-.3 6-1.5 6-6A4.6 4.6 0 0 0 20.7 7c.1-.4.5-2-.2-4 0 0-1.3-.4-4 1.5A14 14 0 0 0 9 4.5C6.3 2.6 5 3 5 3c-.7 2-.3 3.6-.2 4A4.6 4.6 0 0 0 3.5 10c0 4.5 3 5.7 6 6 .5.4.8 1 .9 1.8V22"/></svg></div><div><strong>GitHub Profile</strong><b>@hungvq98</b><span>Always building &amp; learning</span></div></div><div class="activity-card"><div class="activity-icon"><svg class="icon" viewBox="0 0 24 24"><circle cx="12" cy="12" r="8"/><circle cx="12" cy="12" r="4"/><path d="M12 12l6-6"/><path d="M18 6h3v3"/></svg></div><div><strong>Current Focus</strong><b>Creative frontend</b><span>React · UI Motion · UX</span></div></div></div></section>
        <section class="card section"><h2 class="section-title"><svg class="icon" viewBox="0 0 24 24"><rect x="3" y="5" width="18" height="14" rx="2"/><path d="m3 7 9 6 9-6"/></svg>Let’s Connect</h2><div class="contact"><a class="contact-item" href="mailto:hung.vq98@gmail.com"><span class="contact-icon"><svg class="icon" viewBox="0 0 24 24"><rect x="3" y="5" width="18" height="14" rx="2"/><path d="m3 7 9 6 9-6"/></svg></span><span><strong>Email Me</strong><span>hung.vq98@gmail.com</span></span></a><a class="contact-item" href="https://facebook.com/QH.KTTT"><span class="contact-icon"><svg class="icon" viewBox="0 0 24 24"><circle cx="12" cy="12" r="9"/><path d="M14 8h-2a2 2 0 0 0-2 2v2H8v3h2v5h3v-5h2.5l.5-3h-3v-1.5c0-.8.4-1.5 1.5-1.5H16V8h-2z"/></svg></span><span><strong>Facebook</strong><span>facebook.com/QH.KTTT</span></span></a><a class="contact-item" href="https://github.com/hungvq98"><span class="contact-icon"><svg class="icon" viewBox="0 0 24 24"><path d="M9 19c-5 1-5-2-7-3"/><path d="M15 22v-3.5c0-1 .3-1.8 1-2.4 3-.3 6-1.5 6-6A4.6 4.6 0 0 0 20.7 7c.1-.4.5-2-.2-4 0 0-1.3-.4-4 1.5A14 14 0 0 0 9 4.5C6.3 2.6 5 3 5 3c-.7 2-.3 3.6-.2 4A4.6 4.6 0 0 0 3.5 10c0 4.5 3 5.7 6 6 .5.4.8 1 .9 1.8V22"/></svg></span><span><strong>GitHub</strong><span>github.com/hungvq98</span></span></a></div></section>
        <footer class="footer">Thanks for stopping by! Have a great day <svg class="icon" viewBox="0 0 24 24"><path d="M12 21s-6-4-6-10a6 6 0 0 1 12 0c0 6-6 10-6 10z"/><path d="M9 10h6"/></svg></footer>
      </main>
    </div>
  </foreignObject>
</svg>
