<svg xmlns="http://www.w3.org/2000/svg" width="1200" height="2210" viewBox="0 0 1200 2210" fill="none">
  <foreignObject width="1200" height="2210">
    <div xmlns="http://www.w3.org/1999/xhtml">
      <style>
@import url('https://fonts.googleapis.com/css2?family=Baloo+2:wght@400..800&amp;display=swap');
        *{box-sizing:border-box}html,body{margin:0;width:1200px;min-height:2210px;color:#fff8e9;font-family:"Baloo 2",-apple-system,BlinkMacSystemFont,"Segoe UI",Arial,Helvetica,sans-serif}.page{width:1200px;min-height:2210px;padding:0;overflow:hidden;background:transparent}.page>.card{min-height:inherit}.card{position:relative;overflow:hidden;background:#1b120d;border:1px solid #8f5b2e;border-radius:8px;box-shadow:inset 0 0 0 1px rgba(255,248,233,.04)}.section{margin-top:22px;padding:24px}.section-title{display:flex;align-items:center;gap:10px;margin:0 0 20px;color:#fff8e9;font-size:22px;font-weight:700;letter-spacing:0;font-family:"Baloo 2",sans-serif}.hero{min-height:390px;display:grid;grid-template-columns:1fr;align-items:center;padding:52px 56px}.hero:after{display:none}.hero-copy{position:relative;z-index:2}.brand{margin:0;color:#fff8e9;font-size:70px;line-height:1;font-weight:800;letter-spacing:0;font-family:"Baloo 2",sans-serif}.name{display:flex;align-items:center;gap:10px;margin-top:14px;color:#ead7c4;font-size:22px;font-weight:650}.verified{display:inline-grid;place-items:center;width:23px;height:23px;border-radius:50%;color:#1b120d;background:#7fb955;font-size:14px;font-weight:900}.role{margin:22px 0 0;color:#fff8e9;font-size:30px;font-weight:750;letter-spacing:0;font-family:"Baloo 2",sans-serif}.tagline{max-width:620px;margin:16px 0 0;color:#ead7c4;font-size:17px;line-height:1.55}.hero-chips{display:flex;flex-wrap:wrap;gap:10px;margin-top:26px}.chip{display:inline-flex;align-items:center;gap:8px;padding:8px 12px;border:1px solid #8f5b2e;border-radius:6px;color:#ead7c4;background:#261a13;font-size:14px;font-weight:750}.icon{width:24px;height:24px;flex:0 0 auto;color:#e7a15c;stroke:currentColor;stroke-width:2;fill:none;stroke-linecap:round;stroke-linejoin:round}.chip .icon{width:16px;height:16px}.value-icon,.fact-icon,.activity-icon,.contact-icon{display:grid;place-items:center;color:#e7a15c}.value-icon .icon,.fact-icon .icon,.activity-icon .icon,.contact-icon .icon{width:34px;height:34px}.quote{min-height:170px;display:grid;grid-template-columns:76px 1fr 230px;align-items:center;padding:26px 34px}.quote-mark{align-self:start;color:#e7a15c;font-family:"Baloo 2",sans-serif;font-size:88px;line-height:.9}.quote-text{padding-left:24px;border-left:4px solid #e7a15c;color:#fff8e9;font-size:31px;line-height:1.32;font-weight:900;letter-spacing:0}.coffee-art{position:relative;height:120px}.cup{position:absolute;right:72px;bottom:12px;width:92px;height:62px;border:5px solid #9a613d;border-radius:10px 10px 30px 30px;background:#f2d1a7}.cup:before{content:"";position:absolute;right:-30px;top:11px;width:30px;height:27px;border:5px solid #9a613d;border-left:0;border-radius:0 18px 18px 0}.cup:after{content:"˘";position:absolute;left:30px;top:18px;color:#75482f;font-size:26px;font-weight:900}.steam{position:absolute;right:104px;top:2px;color:#d49a6a;font-size:50px}.books{position:absolute;right:15px;bottom:0;width:118px;height:20px;border:4px solid #9a613d;border-radius:6px;background:#cf7540;box-shadow:-12px -18px 0 -2px #e6b67c,-12px -18px 0 2px #9a613d,8px -36px 0 -2px #7d9c7a,8px -36px 0 2px #9a613d}.two-col{display:grid;grid-template-columns:1fr 1fr;gap:22px;margin-top:22px}.about p{margin:0 0 14px;color:#ead7c4;font-size:17px;line-height:1.62}.about p:last-child{margin-bottom:0}.skills-grid{display:grid;grid-template-columns:repeat(3,1fr);gap:12px}.skill{min-height:58px;display:flex;align-items:center;gap:11px;padding:11px 13px;border:1px solid #8f5b2e;border-radius:8px;background:#261a13;box-shadow:none;font-size:15px;font-weight:780}.skill-icon{display:grid;place-items:center;width:34px;height:34px;padding:5px;border:1px solid #8f5b2e;border-radius:9px;background:#1b120d;color:#fff8e9;box-shadow:none}.skill-icon .dev-icon{display:block;width:24px;height:24px}.skill-fallback{color:#1b120d;background:#e7a15c;border-color:#e7a15c;font-size:12px;font-weight:900;padding:0}.facts{display:grid;grid-template-columns:repeat(4,1fr);gap:14px}.fact{min-height:96px;display:flex;align-items:center;gap:14px;padding:15px 17px;border:1px solid #8f5b2e;border-radius:8px;background:#261a13;box-shadow:none}.fact-icon{font-size:36px}.fact strong{display:block;margin-bottom:4px;color:#fff8e9;font-size:15px}.fact span{color:#ead7c4;font-size:14px;line-height:1.35}.values{display:grid;grid-template-columns:repeat(3,1fr);gap:16px}.value{min-height:152px;padding:20px 18px;text-align:center;border:1px solid #8f5b2e;border-radius:8px;background:#261a13;box-shadow:none}.value-icon{font-size:34px}.value h3{margin:10px 0 7px;color:#fff8e9;font-size:17px}.value p{margin:0;color:#ead7c4;font-size:14px;line-height:1.45}.projects{display:grid;grid-template-columns:1fr 1fr;gap:18px}.project{display:grid;grid-template-columns:210px 1fr;gap:20px;align-items:center;padding:18px;border:1px solid #8f5b2e;border-radius:8px;background:#261a13;box-shadow:none}.project-preview{position:relative;height:150px;overflow:hidden;border:4px solid #7c5036;border-radius:13px;background:#ddbd86}.project-preview.travel{background:linear-gradient(145deg,transparent 48%,#547e5e 49% 65%,transparent 66%),linear-gradient(35deg,transparent 45%,#6d9472 46% 62%,transparent 63%),linear-gradient(#8fc6d0 0 52%,#5e9b7a 53% 67%,#e3bd79 68%)}.project-preview.travel:after{content:"Wander UI";position:absolute;left:37px;top:52px;width:125px;padding:12px 8px;text-align:center;color:#68442f;border:2px solid #b98761;border-radius:10px;background:rgba(255,247,232,.92);font-size:15px;font-weight:850}.project-preview.dashboard{padding:13px;background:#27313a}.dash-sidebar{position:absolute;left:10px;top:10px;bottom:10px;width:38px;border-radius:5px;background:#161d23}.dash-box{position:absolute;border-radius:5px;background:#f2e6d5}.dash-a{left:58px;top:14px;width:128px;height:26px}.dash-b{left:58px;top:48px;width:57px;height:36px}.dash-c{left:123px;top:48px;width:63px;height:36px}.dash-d{left:58px;top:92px;width:128px;height:42px}.project h3{margin:0 0 8px;color:#fff8e9;font-size:23px}.project p{margin:0;color:#ead7c4;font-size:14px;line-height:1.45}.project-tags{display:flex;flex-wrap:wrap;gap:7px;margin-top:13px}.project-tags span{padding:6px 9px;border:1px solid #8f5b2e;border-radius:6px;color:#ead7c4;background:#1b120d;font-size:12px;font-weight:780}.project-actions{display:flex;gap:8px;margin-top:14px}.btn{padding:8px 11px;border:1px solid #8f5b2e;border-radius:6px;color:#fff8e9;background:#1b120d;font-size:12px;font-weight:850}.btn.primary{color:#1b120d;border-color:#e7a15c;background:#e7a15c}.activity{display:grid;grid-template-columns:repeat(3,1fr);gap:14px}.activity-card{min-height:108px;display:flex;align-items:center;gap:15px;padding:17px;border:1px solid #8f5b2e;border-radius:8px;background:#261a13;box-shadow:none}.activity-icon{font-size:38px}.activity-card strong{display:block;margin-bottom:5px;color:#fff8e9;font-size:15px}.activity-card b{display:block;margin-bottom:2px;color:#fff8e9;font-size:20px}.activity-card span{color:#ead7c4;font-size:13px}.contact{display:grid;grid-template-columns:repeat(3,1fr);gap:14px}.contact-item{min-height:84px;display:flex;align-items:center;gap:14px;padding:15px 18px;border:1px solid #8f5b2e;border-radius:8px;color:#fff8e9;background:#261a13;box-shadow:none;text-decoration:none}.contact-icon{font-size:33px}.contact-item strong{display:block;margin-bottom:3px;color:#fff8e9;font-size:15px}.contact-item span{color:#ead7c4;font-size:13px}.footer{margin-top:22px;padding:14px;color:#ead7c4;text-align:center;font-size:14px}
      </style>
      <main class="page">
        <section class="card hero"><div class="hero-copy">
            <h1 class="brand">Quhu</h1>
            <div class="name">Văn Quốc Hùng <span class="verified">✓</span></div>
            <h2 class="role">Frontend Developer</h2>
            <p class="tagline">I build warm, playful interfaces where thoughtful engineering meets character, motion and a little bit of unexpected joy.</p>
            <div class="hero-chips"><span class="chip"><svg class="icon" viewBox="0 0 24 24"><path d="M5 8h10v7a4 4 0 0 1-4 4H9a4 4 0 0 1-4-4V8z"/><path d="M15 10h2a3 3 0 0 1 0 6h-2"/><path d="M6 3v2"/><path d="M10 3v2"/><path d="M14 3v2"/></svg>Coffee powered</span><span class="chip"><svg class="icon" viewBox="0 0 24 24"><path d="M12 3l1.5 5L19 10l-5.5 2L12 17l-1.5-5L5 10l5.5-2L12 3z"/><path d="M20 4v4"/><path d="M22 6h-4"/></svg>UI motion</span><span class="chip"><svg class="icon" viewBox="0 0 24 24"><path d="M12 21s7-5 7-11a7 7 0 0 0-14 0c0 6 7 11 7 11z"/><circle cx="12" cy="10" r="2.5"/></svg>Based in HCMC</span></div>
          </div>
        </section>
        <section class="card section quote"><div class="quote-mark">“</div><div class="quote-text">I turn ideas into digital spaces that feel clear, responsive and genuinely fun to explore.</div><div class="coffee-art"><div class="steam">〰</div><div class="cup"></div><div class="books"></div></div></section>
        <div class="two-col">
          <section class="card section about"><h2 class="section-title"><svg class="icon" viewBox="0 0 24 24"><path d="M7 20c8 0 13-5 13-13V4h-3C9 4 4 9 4 17v3h3z"/><path d="M4 20c4-4 8-7 13-10"/></svg>About Me</h2><p>Mình là <strong>Quốc Hùng</strong>, một Frontend Developer yêu thích việc biến ý tưởng thành những giao diện rõ ràng, thân thiện và có cá tính.</p><p>Mình quan tâm đến clean code, khả năng bảo trì, responsive design và những chuyển động nhỏ giúp trải nghiệm tự nhiên hơn.</p><p>Khi không code, mình thường khám phá UI animation, thiết kế cozy và các cách mới để làm giao diện trở nên sống động.</p></section>
          <section class="card section"><h2 class="section-title"><svg class="icon" viewBox="0 0 24 24"><rect x="3" y="7" width="18" height="13" rx="2"/><path d="M8 7V5c0-1 1-2 2-2h4c1 0 2 1 2 2v2"/><path d="M3 12h18"/></svg>Skills &amp; Tools</h2><div class="skills-grid"><div class="skill"><span class="skill-icon"><svg class="dev-icon" viewBox="0 0 100 100" fill="none"><path fill="#E44D26" d="M14.021 90.035 6 0h88.187l-8.022 89.986L50.02 100"></path><path fill="#F16529" d="M50.093 92.345V7.39h36.048L79.26 84.2"></path><path fill="#EBEBEB" d="M22.383 18.401h27.71v11.036H34.488L35.51 40.74h14.584v11.01H25.397zm3.5 38.892h11.084l.778 8.824 12.348 3.305v11.522l-22.654-6.32"></path><path fill="#fff" d="M77.706 18.401H50.044v11.036h26.64zM75.688 40.74H50.044v11.035h13.612l-1.288 14.342-12.324 3.305v11.473l22.606-6.271"></path></svg></span>HTML</div><div class="skill"><span class="skill-icon"><svg class="dev-icon" viewBox="0 0 100 100" fill="none"><path fill="#264DE4" d="m94.175 0-8.033 89.99L50.034 100l-36.01-9.996L6 0z"></path><path fill="#2965F1" d="m79.265 84.26 6.864-76.9H50.087v84.989z"></path><path fill="#EBEBEB" d="m24.396 40.74.99 11.04h24.702V40.74zm25.692-22.342h-27.68l1.003 11.039h26.676zm-.001 62.496V69.409l-.048.013-12.294-3.32-.786-8.804H25.878l1.547 17.332 22.612 6.278z"></path><path fill="#fff" d="m63.642 51.779-1.281 14.316-12.312 3.323v11.484l22.63-6.271.166-1.865 2.594-29.061.27-2.964L77.7 18.398H50.05v11.039h15.555L64.599 40.74H50.05v11.038z"></path></svg></span>CSS</div><div class="skill"><span class="skill-icon"><svg class="dev-icon" viewBox="0 0 100 100" fill="none"><path fill="#CD6799" d="M86.108 56.112c-3.489.018-6.52.858-9.06 2.1-.931-1.845-1.863-3.489-2.027-4.694-.183-1.407-.402-2.265-.183-3.945s1.206-4.074 1.187-4.256-.219-1.041-2.228-1.06c-2.01-.018-3.744.384-3.945.914s-.585 1.735-.84 2.977c-.348 1.826-4.019 8.347-6.12 11.763-.675-1.334-1.26-2.503-1.388-3.434-.182-1.406-.401-2.265-.182-3.945s1.205-4.074 1.187-4.256-.22-1.041-2.228-1.06c-2.01-.018-3.745.384-3.946.914-.2.53-.42 1.771-.84 2.977S50.198 63.199 48.92 66.01a84 84 0 0 1-1.626 3.38s-.018.054-.073.146c-.347.675-.548 1.04-.548 1.04v.02c-.274.492-.566.949-.712.949-.11 0-.311-1.315.036-3.105.73-3.781 2.466-9.663 2.448-9.864 0-.11.328-1.132-1.133-1.662-1.425-.53-1.936.347-2.064.347s-.219.31-.219.31 1.59-6.611-3.032-6.611c-2.886 0-6.868 3.16-8.84 6.01a2157 2157 0 0 0-6.722 3.67c-1.078.603-2.192 1.206-3.233 1.772-.073-.073-.146-.164-.22-.237-5.589-5.973-15.927-10.192-15.488-18.21.164-2.923 1.169-10.595 19.854-19.91 15.38-7.58 27.617-5.48 29.736-.822 3.032 6.648-6.557 18.996-22.448 20.786-6.064.676-9.242-1.662-10.046-2.539-.84-.913-.968-.968-1.279-.785-.511.274-.182 1.096 0 1.57.475 1.242 2.43 3.434 5.736 4.512 2.922.95 10.028 1.48 18.63-1.845 9.626-3.726 17.152-14.082 14.941-22.758-2.21-8.804-16.822-11.709-30.649-6.795-8.22 2.922-17.133 7.525-23.544 13.516C.808 36.02-.397 42.212.096 44.806 1.868 54.01 14.562 60.001 19.64 64.44c-.256.146-.493.274-.694.383-2.539 1.26-12.22 6.32-14.63 11.672-2.74 6.064.438 10.411 2.538 10.996 6.521 1.808 13.224-1.443 16.823-6.813 3.598-5.37 3.16-12.348 1.497-15.544a.4.4 0 0 0-.073-.11c.658-.383 1.334-.785 1.991-1.169a97 97 0 0 1 3.672-2.064c-.621 1.699-1.078 3.726-1.297 6.649-.274 3.434 1.132 7.89 2.977 9.644.822.767 1.79.785 2.411.785 2.156 0 3.124-1.79 4.201-3.909 1.315-2.593 2.503-5.607 2.503-5.607s-1.48 8.146 2.538 8.146c1.462 0 2.941-1.9 3.599-2.867v.018s.036-.055.11-.183c.145-.237.237-.383.237-.383v-.037c.584-1.023 1.9-3.342 3.854-7.196 2.52-4.969 4.95-11.179 4.95-11.179s.219 1.516.968 4.037c.438 1.48 1.351 3.105 2.082 4.676-.584.822-.95 1.278-.95 1.278l.018.019c-.474.62-.986 1.296-1.552 1.954-1.991 2.375-4.365 5.096-4.694 5.882-.384.931-.293 1.607.438 2.155.53.402 1.48.456 2.448.402 1.79-.128 3.05-.566 3.671-.84.968-.348 2.1-.877 3.16-1.663 1.954-1.443 3.142-3.507 3.032-6.228-.055-1.498-.548-2.996-1.15-4.402.182-.256.346-.512.529-.767 3.087-4.512 5.48-9.462 5.48-9.462s.219 1.516.968 4.037c.365 1.279 1.114 2.667 1.771 4.018-2.904 2.357-4.694 5.096-5.333 6.886-1.15 3.325-.256 4.822 1.443 5.17.767.164 1.863-.201 2.667-.549a12.2 12.2 0 0 0 3.379-1.735c1.954-1.443 3.835-3.452 3.726-6.173-.055-1.242-.384-2.466-.84-3.653 2.465-1.023 5.644-1.59 9.698-1.115 8.695 1.023 10.412 6.448 10.083 8.731s-2.155 3.525-2.758 3.909-.804.511-.749.785c.073.402.365.384.877.31.712-.127 4.566-1.844 4.73-6.045.275-5.37-4.84-11.233-13.881-11.178m-67.07 22.612c-2.887 3.142-6.905 4.33-8.64 3.325-1.863-1.078-1.133-5.718 2.41-9.042 2.156-2.027 4.933-3.909 6.777-5.06.42-.255 1.041-.62 1.79-1.077.128-.073.201-.11.201-.11l.439-.274c1.296 4.75.054 8.932-2.978 12.238M40.041 64.44c-1.004 2.447-3.105 8.712-4.383 8.365-1.096-.292-1.772-5.041-.22-9.735.786-2.356 2.448-5.17 3.416-6.265 1.571-1.754 3.306-2.338 3.726-1.626.53.932-1.918 7.726-2.539 9.26m17.334 8.292c-.42.22-.822.365-1.004.256-.128-.073.182-.365.182-.365s2.174-2.338 3.032-3.398c.494-.62 1.078-1.352 1.7-2.173v.237c0 2.795-2.704 4.676-3.91 5.443m13.37-3.05c-.31-.22-.255-.95.786-3.233.402-.895 1.352-2.393 2.977-3.836.183.585.31 1.15.293 1.68-.019 3.526-2.54 4.84-4.055 5.389"></path></svg></span>Sass</div><div class="skill"><span class="skill-icon"><svg class="dev-icon" viewBox="0 0 100 100" fill="none"><path fill="#F7DF1E" d="M100 0H0v100h100z"></path><path fill="#000" d="M67.175 78.126c2.014 3.289 4.634 5.706 9.27 5.706 3.893 0 6.38-1.946 6.38-4.635 0-3.222-2.555-4.363-6.841-6.238l-2.35-1.008c-6.78-2.889-11.285-6.508-11.285-14.158 0-7.048 5.37-12.413 13.762-12.413 5.975 0 10.27 2.08 13.365 7.524l-7.317 4.698c-1.612-2.889-3.35-4.027-6.048-4.027-2.752 0-4.497 1.746-4.497 4.027 0 2.82 1.746 3.96 5.778 5.707l2.35 1.006c7.983 3.424 12.491 6.914 12.491 14.762 0 8.46-6.646 13.095-15.571 13.095-8.727 0-14.365-4.159-17.124-9.61zm-33.196.814c1.477 2.62 2.82 4.834 6.048 4.834 3.087 0 5.035-1.208 5.035-5.905V45.916h9.397v32.08c0 9.73-5.705 14.159-14.032 14.159-7.524 0-11.881-3.894-14.097-8.584z"></path></svg></span>JavaScript</div><div class="skill"><span class="skill-icon"><svg class="dev-icon" viewBox="0 0 100 100" fill="none"><path fill="#61DAFB" d="M50.307 58.817a8.816 8.816 0 1 0 0-17.632 8.816 8.816 0 0 0 0 17.632"></path><path stroke="#61DAFB" stroke-width="5" d="M50.307 68.063c26.126 0 47.306-8.087 47.306-18.062s-21.18-18.063-47.306-18.063C24.18 31.938 3 40.025 3 50.001s21.18 18.062 47.307 18.062Z"></path><path stroke="#61DAFB" stroke-width="5" d="M34.664 59.032C47.727 81.658 65.321 95.957 73.96 90.969c8.64-4.988 5.053-27.373-8.01-50C52.885 18.343 35.291 4.044 26.652 9.032s-5.052 27.373 8.011 50Z"></path><path stroke="#61DAFB" stroke-width="5" d="M34.664 40.97c-13.063 22.626-16.65 45.011-8.01 50 8.638 4.987 26.232-9.312 39.295-31.938 13.064-22.627 16.65-45.012 8.01-50-8.638-4.988-26.232 9.31-39.295 31.937Z"></path></svg></span>React</div><div class="skill"><span class="skill-icon skill-fallback">GS</span>GSAP</div><div class="skill"><span class="skill-icon"><svg class="dev-icon" viewBox="0 0 100 100" fill="none"><path fill="#0ACF83" d="M33.333 100.001c9.2 0 16.667-7.467 16.667-16.667V66.667H33.333c-9.2 0-16.666 7.467-16.666 16.667S24.133 100 33.333 100"></path><path fill="#A259FF" d="M16.667 50c0-9.2 7.466-16.666 16.666-16.666H50v33.333H33.333c-9.2 0-16.666-7.467-16.666-16.667"></path><path fill="#F24E1E" d="M16.667 16.667C16.667 7.467 24.133 0 33.333 0H50v33.334H33.333c-9.2 0-16.666-7.467-16.666-16.667"></path><path fill="#FF7262" d="M50 0h16.667c9.2 0 16.666 7.467 16.666 16.667s-7.466 16.667-16.666 16.667H50z"></path><path fill="#1ABCFE" d="M83.333 50c0 9.2-7.466 16.667-16.666 16.667S50 59.2 50 50s7.467-16.666 16.667-16.666S83.333 40.8 83.333 50"></path></svg></span>Figma</div><div class="skill"><span class="skill-icon"><svg class="dev-icon" viewBox="0 0 100 100" fill="none"><path fill="#001E36" d="M17.708 1h64.584C92.083 1 100 8.917 100 18.71v62.083c0 9.792-7.917 17.709-17.708 17.709H17.708C7.917 98.5 0 90.584 0 80.792V18.71C0 8.917 7.917 1 17.708 1"></path><path fill="#31A8FF" d="M22.5 69.376V26.5c0-.292.125-.459.417-.459.708 0 1.375 0 2.333-.042 1-.041 2.042-.041 3.167-.083s2.333-.042 3.625-.083c1.291-.042 2.541-.042 3.791-.042 3.417 0 6.25.417 8.584 1.292 2.083.708 4 1.875 5.583 3.416a13.3 13.3 0 0 1 3.042 4.75A16 16 0 0 1 54 40.666q0 5.376-2.5 8.875c-1.667 2.334-4 4.084-6.708 5.084-2.834 1.041-5.959 1.416-9.375 1.416-1 0-1.667 0-2.084-.041-.416-.042-1-.042-1.791-.042v13.375c.041.291-.167.541-.459.583H23c-.333 0-.5-.166-.5-.541m9.083-35.292v14c.584.041 1.125.083 1.625.083h2.209c1.625 0 3.25-.25 4.791-.75 1.334-.375 2.5-1.166 3.417-2.208.875-1.042 1.292-2.459 1.292-4.292a6.86 6.86 0 0 0-.959-3.708c-.708-1.084-1.708-1.917-2.916-2.375-1.542-.625-3.209-.875-4.917-.834-1.083 0-2.042 0-2.833.042-.834-.041-1.417 0-1.709.042M80 45.542c-1.25-.666-2.583-1.125-4-1.416-1.542-.334-3.083-.542-4.667-.542-.833-.042-1.708.083-2.5.291-.541.126-1 .417-1.291.834-.209.333-.334.75-.334 1.125s.167.75.417 1.083c.375.459.875.834 1.417 1.125.958.5 1.958.959 2.958 1.375 2.25.75 4.417 1.792 6.417 3.042a9.7 9.7 0 0 1 3.291 3.458c.667 1.334 1 2.792.959 4.292a9.7 9.7 0 0 1-1.625 5.541 10.44 10.44 0 0 1-4.667 3.709c-2.042.875-4.542 1.333-7.542 1.333a28.7 28.7 0 0 1-5.666-.541 16.8 16.8 0 0 1-4.25-1.334c-.292-.166-.5-.458-.459-.791v-7.25c0-.125.042-.292.167-.375s.25-.042.375.041a17.8 17.8 0 0 0 5.167 2.042 19.4 19.4 0 0 0 4.916.625c1.584 0 2.709-.209 3.459-.584.666-.291 1.125-1 1.125-1.75 0-.583-.334-1.124-1-1.666-.667-.542-2.042-1.167-4.084-1.959a25.5 25.5 0 0 1-5.916-3 10.8 10.8 0 0 1-3.167-3.54 8.94 8.94 0 0 1-.958-4.25c0-1.792.5-3.5 1.416-5.042 1.042-1.666 2.584-3 4.375-3.833 1.959-1 4.417-1.459 7.375-1.459 1.709 0 3.459.126 5.167.376 1.25.166 2.458.5 3.583.958.167.041.334.208.417.375.042.166.083.333.083.5v6.791a.51.51 0 0 1-.208.417c-.375.084-.583.084-.75 0"></path></svg></span>Photoshop</div><div class="skill"><span class="skill-icon"><svg class="dev-icon" viewBox="0 0 100 100" fill="none"><path fill="#DE4C36" d="M98.114 45.545 54.454 1.886a6.44 6.44 0 0 0-9.108 0l-9.066 9.067 11.5 11.5a7.65 7.65 0 0 1 7.869 1.834 7.66 7.66 0 0 1 1.817 7.916L68.55 43.289c2.682-.924 5.776-.326 7.918 1.819a7.66 7.66 0 0 1 0 10.836A7.662 7.662 0 0 1 63.96 47.61L53.623 37.272v27.202c.749.37 1.433.86 2.026 1.449a7.663 7.663 0 0 1 0 10.839 7.66 7.66 0 0 1-10.836 0 7.663 7.663 0 0 1 2.508-12.51V36.795a7.6 7.6 0 0 1-2.508-1.673 7.66 7.66 0 0 1-1.651-8.377L31.824 15.407 1.887 45.343a6.44 6.44 0 0 0 0 9.11l43.661 43.66a6.44 6.44 0 0 0 9.108 0l43.458-43.457a6.444 6.444 0 0 0 0-9.111"></path></svg></span>Git</div><div class="skill"><span class="skill-icon"><svg class="dev-icon" viewBox="0 0 100 100" fill="none"><path fill="#2489CA" d="M.951 35.499s-2.435-1.756.488-4.1l6.81-6.09s1.948-2.05 4.008-.263l62.839 47.576v22.814s-.03 3.582-4.628 3.186z"></path><path fill="#1070B3" d="M17.148 50.204.951 64.93s-1.664 1.238 0 3.45l7.52 6.84s1.787 1.918 4.425-.264l17.171-13.02z"></path><path fill="#0877B9" d="M45.584 50.326 75.29 27.644l-.193-22.692S73.827 0 69.596 2.577L30.067 38.554z"></path><path fill="#3C99D4" d="M70.468 98.653c1.726 1.766 3.816 1.187 3.816 1.187l23.149-11.407c2.963-2.02 2.547-4.526 2.547-4.526V15.791c0-2.994-3.065-4.03-3.065-4.03l-20.063-9.67c-4.384-2.71-7.256.486-7.256.486s3.694-2.658 5.5 2.375V95.02c0 .619-.132 1.228-.396 1.776-.528 1.065-1.674 2.06-4.425 1.644z"></path></svg></span>VS Code</div></div></section>
        </div>
        <section class="card section"><h2 class="section-title"><svg class="icon" viewBox="0 0 24 24"><circle cx="12" cy="12" r="9"/><path d="M12 8h.01"/><path d="M11 12h1v5h1"/></svg>Quick Facts</h2><div class="facts"><div class="fact"><div class="fact-icon"><svg class="icon" viewBox="0 0 24 24"><path d="M12 21s7-5 7-11a7 7 0 0 0-14 0c0 6 7 11 7 11z"/><circle cx="12" cy="10" r="2.5"/></svg></div><div><strong>Based in</strong><span>Ho Chi Minh City</span></div></div><div class="fact"><div class="fact-icon"><svg class="icon" viewBox="0 0 24 24"><rect x="4" y="5" width="16" height="11" rx="1"/><path d="M8 20h8"/><path d="M12 16v4"/></svg></div><div><strong>Role</strong><span>Frontend Developer</span></div></div><div class="fact"><div class="fact-icon"><svg class="icon" viewBox="0 0 24 24"><rect x="3" y="5" width="18" height="14" rx="2"/><path d="M7 5v14"/><path d="M17 5v14"/><path d="M3 9h18"/><path d="M3 15h18"/></svg></div><div><strong>Loves</strong><span>UI motion</span></div></div><div class="fact"><div class="fact-icon"><svg class="icon" viewBox="0 0 24 24"><path d="M5 8h10v7a4 4 0 0 1-4 4H9a4 4 0 0 1-4-4V8z"/><path d="M15 10h2a3 3 0 0 1 0 6h-2"/><path d="M6 3v2"/><path d="M10 3v2"/><path d="M14 3v2"/></svg></div><div><strong>Powered by</strong><span>Coffee</span></div></div></div></section>
        <section class="card section"><h2 class="section-title"><svg class="icon" viewBox="0 0 24 24"><path d="M12 20V10"/><path d="M12 10c-4 0-7-2-8-6 4 0 7 2 8 6z"/><path d="M12 10c4 0 7-2 8-6-4 0-7 2-8 6z"/></svg>What I Care About</h2><div class="values"><div class="value"><div class="value-icon"><svg class="icon" viewBox="0 0 24 24"><circle cx="12" cy="12" r="8"/><circle cx="12" cy="12" r="4"/><path d="M12 12l6-6"/><path d="M18 6h3v3"/></svg></div><h3>Thoughtful UI</h3><p>Giao diện rõ ràng, có chủ đích và không có chi tiết thừa.</p></div><div class="value"><div class="value-icon"><svg class="icon" viewBox="0 0 24 24"><rect x="7" y="2" width="10" height="20" rx="2"/><path d="M11 18h2"/></svg></div><h3>Responsive Design</h3><p>Hoạt động tốt trên desktop, tablet và thiết bị di động.</p></div><div class="value"><div class="value-icon"><svg class="icon" viewBox="0 0 24 24"><circle cx="12" cy="5" r="2"/><path d="M12 7v6h5"/><path d="M9 11a6 6 0 1 0 6 8"/><path d="M17 13l2 6"/></svg></div><h3>Accessibility</h3><p>Trải nghiệm dễ đọc, dễ thao tác và dễ tiếp cận.</p></div><div class="value"><div class="value-icon"><svg class="icon" viewBox="0 0 24 24"><path d="M12 3l1.5 5L19 10l-5.5 2L12 17l-1.5-5L5 10l5.5-2L12 3z"/><path d="M20 4v4"/><path d="M22 6h-4"/></svg></div><h3>Playful Motion</h3><p>Animation vừa đủ, tự nhiên và hỗ trợ trải nghiệm.</p></div><div class="value"><div class="value-icon"><svg class="icon" viewBox="0 0 24 24"><path d="M8 3h8v5h2a3 3 0 1 1 0 6h-2v7H8v-4H6a3 3 0 1 1 0-6h2V3z"/></svg></div><h3>Clean Architecture</h3><p>Code dễ đọc, dễ bảo trì và thuận tiện để mở rộng.</p></div><div class="value"><div class="value-icon"><svg class="icon" viewBox="0 0 24 24"><path d="M13 2 4 14h7l-1 8 10-12h-7l1-8z"/></svg></div><h3>Performance</h3><p>Website tải nhanh và hạn chế tài nguyên không cần thiết.</p></div></div></section>
        <section class="card section"><h2 class="section-title"><svg class="icon" viewBox="0 0 24 24"><path d="m12 3 2.8 5.7 6.2.9-4.5 4.4 1.1 6.2L12 17.3l-5.6 2.9 1.1-6.2L3 9.6l6.2-.9L12 3z"/></svg>Featured Projects</h2><div class="projects"><article class="project"><div class="project-preview travel"></div><div><h3>Wander UI</h3><p>A cozy travel landing page with smooth scrolling, playful interactions and responsive visuals.</p><div class="project-tags"><span>React</span><span>Sass</span><span>GSAP</span></div><div class="project-actions"><span class="btn primary">Live Demo ↗</span><span class="btn">Source Code</span></div></div></article><article class="project"><div class="project-preview dashboard"><div class="dash-sidebar"></div><div class="dash-box dash-a"></div><div class="dash-box dash-b"></div><div class="dash-box dash-c"></div><div class="dash-box dash-d"></div></div><div><h3>Dashboard Kit</h3><p>A responsive dashboard template with modern components, charts and accessible interactions.</p><div class="project-tags"><span>React</span><span>JavaScript</span><span>CSS</span></div><div class="project-actions"><span class="btn primary">Live Demo ↗</span><span class="btn">Source Code</span></div></div></article></div></section>
        <section class="card section"><h2 class="section-title"><svg class="icon" viewBox="0 0 24 24"><path d="M13 2 4 14h7l-1 8 10-12h-7l1-8z"/></svg>GitHub Activity</h2><div class="activity"><div class="activity-card"><div class="activity-icon"><svg class="icon" viewBox="0 0 24 24"><path d="M3 6h7l2 2h9v10a2 2 0 0 1-2 2H5a2 2 0 0 1-2-2V6z"/></svg></div><div><strong>Repositories</strong><b>View projects</b><span>github.com/hungvq98</span></div></div><div class="activity-card"><div class="activity-icon"><svg class="icon" viewBox="0 0 24 24"><path d="M9 19c-5 1-5-2-7-3"/><path d="M15 22v-3.5c0-1 .3-1.8 1-2.4 3-.3 6-1.5 6-6A4.6 4.6 0 0 0 20.7 7c.1-.4.5-2-.2-4 0 0-1.3-.4-4 1.5A14 14 0 0 0 9 4.5C6.3 2.6 5 3 5 3c-.7 2-.3 3.6-.2 4A4.6 4.6 0 0 0 3.5 10c0 4.5 3 5.7 6 6 .5.4.8 1 .9 1.8V22"/></svg></div><div><strong>GitHub Profile</strong><b>@hungvq98</b><span>Always building &amp; learning</span></div></div><div class="activity-card"><div class="activity-icon"><svg class="icon" viewBox="0 0 24 24"><circle cx="12" cy="12" r="8"/><circle cx="12" cy="12" r="4"/><path d="M12 12l6-6"/><path d="M18 6h3v3"/></svg></div><div><strong>Current Focus</strong><b>Creative frontend</b><span>React · UI Motion · UX</span></div></div></div></section>
        <section class="card section"><h2 class="section-title"><svg class="icon" viewBox="0 0 24 24"><rect x="3" y="5" width="18" height="14" rx="2"/><path d="m3 7 9 6 9-6"/></svg>Let’s Connect</h2><div class="contact"><a class="contact-item" href="mailto:hung.vq98@gmail.com"><span class="contact-icon"><svg class="icon" viewBox="0 0 24 24"><rect x="3" y="5" width="18" height="14" rx="2"/><path d="m3 7 9 6 9-6"/></svg></span><span><strong>Email Me</strong><span>hung.vq98@gmail.com</span></span></a><a class="contact-item" href="https://facebook.com/QH.KTTT"><span class="contact-icon"><svg class="icon" viewBox="0 0 24 24"><circle cx="12" cy="12" r="9"/><path d="M14 8h-2a2 2 0 0 0-2 2v2H8v3h2v5h3v-5h2.5l.5-3h-3v-1.5c0-.8.4-1.5 1.5-1.5H16V8h-2z"/></svg></span><span><strong>Facebook</strong><span>facebook.com/QH.KTTT</span></span></a><a class="contact-item" href="https://github.com/hungvq98"><span class="contact-icon"><svg class="icon" viewBox="0 0 24 24"><path d="M9 19c-5 1-5-2-7-3"/><path d="M15 22v-3.5c0-1 .3-1.8 1-2.4 3-.3 6-1.5 6-6A4.6 4.6 0 0 0 20.7 7c.1-.4.5-2-.2-4 0 0-1.3-.4-4 1.5A14 14 0 0 0 9 4.5C6.3 2.6 5 3 5 3c-.7 2-.3 3.6-.2 4A4.6 4.6 0 0 0 3.5 10c0 4.5 3 5.7 6 6 .5.4.8 1 .9 1.8V22"/></svg></span><span><strong>GitHub</strong><span>github.com/hungvq98</span></span></a></div></section>
        <footer class="footer">Thanks for stopping by! Have a great day <svg class="icon" viewBox="0 0 24 24"><path d="M12 21s-6-4-6-10a6 6 0 0 1 12 0c0 6-6 10-6 10z"/><path d="M9 10h6"/></svg></footer>
      </main>
    </div>
  </foreignObject>
</svg>
